<svg width="50" height="50" viewBox="0 0 50 50" fill="none" xmlns="http://www.w3.org/2000/svg">
<path d="M19.46 23.225L30.05 35.615C30.1104 35.6892 30.1867 35.749 30.2732 35.7901C30.3597 35.8312 30.4542 35.8525 30.55 35.8525C30.6457 35.8525 30.7403 35.8312 30.8267 35.7901C30.9132 35.749 30.9895 35.6892 31.05 35.615L41.625 23.225M44.82 35.875L30.54 35.84L44.82 35.875Z" stroke="black" stroke-width="4" stroke-miterlimit="10" stroke-linecap="round"/>
<path d="M30.5399 26.97L19.9499 14.58C19.8894 14.5058 19.8131 14.446 19.7267 14.4049C19.6402 14.3638 19.5456 14.3425 19.4499 14.3425C19.3541 14.3425 19.2596 14.3638 19.1731 14.4049C19.0866 14.446 19.0104 14.5058 18.9499 14.58L8.37488 26.97M5.25488 14.32H19.4599H5.25488Z" stroke="url(#paint0_linear_179_7259)" stroke-width="4" stroke-miterlimit="10" stroke-linecap="round"/>
<path d="M45.3051 33.67V16.33C45.3049 15.4016 45.0603 14.4897 44.5961 13.6857C44.1318 12.8818 43.4641 12.2142 42.6601 11.75L27.6601 3.08C26.8559 2.61571 25.9437 2.37128 25.0151 2.37128C24.0865 2.37128 23.1743 2.61571 22.3701 3.08L7.3701 11.75C6.5661 12.2142 5.89843 12.8818 5.43414 13.6857C4.96986 14.4897 4.72532 15.4016 4.7251 16.33V33.67C4.72532 34.5984 4.96986 35.5103 5.43414 36.3143C5.89843 37.1182 6.5661 37.7858 7.3701 38.25L22.3701 46.92C23.1743 47.3843 24.0865 47.6287 25.0151 47.6287C25.9437 47.6287 26.8559 47.3843 27.6601 46.92L42.6601 38.25C43.4641 37.7858 44.1318 37.1182 44.5961 36.3143C45.0603 35.5103 45.3049 34.5984 45.3051 33.67Z" stroke="black" stroke-width="4" stroke-miterlimit="10" stroke-linecap="round"/>
<defs>
<linearGradient id="paint0_linear_179_7259" x1="4.25488" y1="20.645" x2="31.5399" y2="20.645" gradientUnits="userSpaceOnUse">
<stop/>
<stop offset="1"/>
</linearGradient>
</defs>
</svg>
